<svg width="67" height="67" viewBox="0 0 67 67" fill="none" xmlns="http://www.w3.org/2000/svg">
<g clip-path="url(#clip0_294_1570)">
<path d="M33.4493 60.3708C33.1773 60.3723 32.9076 60.3202 32.6558 60.2173C32.404 60.1145 32.1749 59.9629 31.9818 59.7713L17.3682 45.3025C15.2584 43.2066 13.5839 40.714 12.4413 37.9683C11.2987 35.2226 10.7104 32.278 10.7104 29.3041C10.7104 26.3301 11.2987 23.3855 12.4413 20.6399C13.5839 17.8942 15.2584 15.4016 17.3682 13.3057C21.6511 9.07452 27.4289 6.70178 33.4493 6.70178C39.4697 6.70178 45.2476 9.07452 49.5304 13.3057C51.6403 15.4016 53.3147 17.8942 54.4573 20.6399C55.5999 23.3855 56.1882 26.3301 56.1882 29.3041C56.1882 32.278 55.5999 35.2226 54.4573 37.9683C53.3147 40.714 51.6403 43.2066 49.5304 45.3025L34.9169 59.7713C34.7237 59.9629 34.4947 60.1145 34.2428 60.2173C33.991 60.3202 33.7213 60.3723 33.4493 60.3708ZM33.4493 10.7633C28.516 10.7512 23.7798 12.6992 20.2827 16.1788C18.5603 17.8904 17.1934 19.9257 16.2606 22.1677C15.3279 24.4096 14.8477 26.8138 14.8477 29.2421C14.8477 31.6703 15.3279 34.0745 16.2606 36.3165C17.1934 38.5584 18.5603 40.5937 20.2827 42.3054L33.4493 55.3894L46.616 42.3054C48.3383 40.5937 49.7052 38.5584 50.638 36.3165C51.5707 34.0745 52.0509 31.6703 52.0509 29.2421C52.0509 26.8138 51.5707 24.4096 50.638 22.1677C49.7052 19.9257 48.3383 17.8904 46.616 16.1788C43.1188 12.6992 38.3827 10.7512 33.4493 10.7633Z" fill="#EC642B"/>
<path d="M33.4496 39.7009C31.4056 39.7009 29.4075 39.0948 27.7079 37.9592C26.0083 36.8236 24.6837 35.2095 23.9014 33.321C23.1192 31.4326 22.9146 29.3546 23.3133 27.3498C23.7121 25.345 24.6964 23.5035 26.1418 22.0582C27.5871 20.6128 29.4286 19.6285 31.4334 19.2297C33.4382 18.8309 35.5162 19.0356 37.4046 19.8178C39.2931 20.6001 40.9072 21.9247 42.0428 23.6243C43.1784 25.3238 43.7845 27.322 43.7845 29.366C43.7845 32.107 42.6957 34.7357 40.7575 36.6739C38.8194 38.6121 36.1906 39.7009 33.4496 39.7009ZM33.4496 23.1651C32.2232 23.1651 31.0243 23.5288 30.0046 24.2101C28.9849 24.8915 28.1901 25.86 27.7207 26.993C27.2514 28.1261 27.1286 29.3729 27.3679 30.5758C27.6071 31.7786 28.1977 32.8835 29.0649 33.7508C29.9321 34.618 31.037 35.2086 32.2399 35.4478C33.4428 35.6871 34.6896 35.5643 35.8226 35.0949C36.9557 34.6256 37.9242 33.8308 38.6055 32.8111C39.2869 31.7913 39.6506 30.5925 39.6506 29.366C39.6506 27.7214 38.9973 26.1442 37.8344 24.9813C36.6715 23.8184 35.0942 23.1651 33.4496 23.1651Z" fill="#EC642B"/>
</g>
<defs>
<clipPath id="clip0_294_1570">
<rect x="0.37793" y="0.428345" width="66.1433" height="66.1433" rx="33.0717" fill="white"/>
</clipPath>
</defs>
</svg>
